<?xml version="1.0" encoding="UTF-8"?>
<!DOCTYPE svg PUBLIC "-//W3C//DTD SVG 1.1//EN" "http://www.w3.org/Graphics/SVG/1.1/DTD/svg11.dtd">
<svg xmlns="http://www.w3.org/2000/svg" version="1.1" width="24px" height="24px" style="shape-rendering:geometricPrecision; text-rendering:geometricPrecision; image-rendering:optimizeQuality; fill-rule:evenodd; clip-rule:evenodd" xmlns:xlink="http://www.w3.org/1999/xlink">
<g><path style="opacity:0.871" fill="#fce25b" d="M 9.5,0.5 C 8.64219,3.05012 7.64219,5.55012 6.5,8C 9.90762,16.7004 15.5743,18.5337 23.5,13.5C 23.5,14.5 23.5,15.5 23.5,16.5C 22.194,18.4727 20.5273,20.1394 18.5,21.5C 7.7003,21.531 3.2003,16.1977 5,5.5C 5.9959,3.3395 7.4959,1.67284 9.5,0.5 Z"/></g>
<g><path style="opacity:1" fill="#fbd61e" d="M 13.5,-0.5 C 14.5,-0.5 15.5,-0.5 16.5,-0.5C 16.5,-0.166667 16.5,0.166667 16.5,0.5C 14.9192,2.14166 14.2525,4.14166 14.5,6.5C 13.8826,6.61071 13.3826,6.94404 13,7.5C 9.86131,4.38145 10.028,1.71478 13.5,-0.5 Z"/></g>
<g><path style="opacity:0.874" fill="#fce359" d="M 16.5,0.5 C 18.8596,2.5901 18.8596,4.92343 16.5,7.5C 15.8165,7.13727 15.1499,6.80393 14.5,6.5C 14.2525,4.14166 14.9192,2.14166 16.5,0.5 Z"/></g>
<g><path style="opacity:1" fill="#fbd519" d="M 7.5,-0.5 C 8.16667,-0.5 8.83333,-0.5 9.5,-0.5C 9.5,-0.166667 9.5,0.166667 9.5,0.5C 7.4959,1.67284 5.9959,3.3395 5,5.5C 3.2003,16.1977 7.7003,21.531 18.5,21.5C 17.8333,22.1667 17.1667,22.8333 16.5,23.5C 13.1667,23.5 9.83333,23.5 6.5,23.5C 3.42355,21.4274 1.09021,18.7608 -0.5,15.5C -0.5,12.8333 -0.5,10.1667 -0.5,7.5C 1.16667,3.83333 3.83333,1.16667 7.5,-0.5 Z"/></g>
<g><path style="opacity:1" fill="#fcda25" d="M 20.5,10.5 C 18.5,10.5 17.5,11.5 17.5,13.5C 14.7546,11.4952 15.0879,9.82855 18.5,8.5C 19.5223,8.85549 20.189,9.52216 20.5,10.5 Z"/></g>
<g><path style="opacity:0.713" fill="#fbe158" d="M 20.5,10.5 C 20.5,11.5 20.5,12.5 20.5,13.5C 19.5,13.5 18.5,13.5 17.5,13.5C 17.5,11.5 18.5,10.5 20.5,10.5 Z"/></g>
</svg>
