<?xml version="1.0" encoding="UTF-8"?>
<!DOCTYPE svg PUBLIC "-//W3C//DTD SVG 1.1//EN" "http://www.w3.org/Graphics/SVG/1.1/DTD/svg11.dtd">
<svg xmlns="http://www.w3.org/2000/svg" version="1.1" width="24px" height="24px" style="shape-rendering:geometricPrecision; text-rendering:geometricPrecision; image-rendering:optimizeQuality; fill-rule:evenodd; clip-rule:evenodd" xmlns:xlink="http://www.w3.org/1999/xlink">
<g><path style="opacity:0.428" fill="#ffe34d" d="M 20.5,-0.5 C 21.1667,-0.5 21.8333,-0.5 22.5,-0.5C 22.5,0.166667 22.8333,0.5 23.5,0.5C 23.5,1.16667 23.5,1.83333 23.5,2.5C 20.1667,3.83333 19.1667,2.83333 20.5,-0.5 Z"/></g>
<g><path style="opacity:0.44" fill="#ffeb45" d="M 2.5,-0.5 C 2.83333,-0.5 3.16667,-0.5 3.5,-0.5C 4.85263,0.86709 4.5193,1.86709 2.5,2.5C 1.43764,1.57537 1.43764,0.575371 2.5,-0.5 Z"/></g>
<g><path style="opacity:0.805" fill="#ffa300" d="M 8.5,1.5 C 13.6995,1.56891 18.0329,3.56891 21.5,7.5C 22.4465,10.3106 22.4465,12.9772 21.5,15.5C 17.5565,21.527 12.2232,23.027 5.5,20C 4.83333,18 3.5,16.6667 1.5,16C 0.553604,13.143 0.553604,10.143 1.5,7C 3.81664,5.07098 6.14997,3.23765 8.5,1.5 Z"/></g>
<g><path style="opacity:1" fill="#ffc103" d="M 8.5,4.5 C 15.6545,4.15268 18.8212,7.48601 18,14.5C 13.6667,19.8333 9.33333,19.8333 5,14.5C 4.33333,12.5 4.33333,10.5 5,8.5C 6.37561,7.29493 7.54227,5.9616 8.5,4.5 Z"/></g>
<g><path style="opacity:1" fill="#ffe34b" d="M 15.5,13.5 C 12.8875,17.501 10.0541,17.501 7,13.5C 7.33333,6.16667 10.3333,4.83333 16,9.5C 16.765,11.0657 16.5983,12.3991 15.5,13.5 Z"/></g>
<g><path style="opacity:1" fill="#fff97c" d="M 15.5,13.5 C 14.0609,12.4908 12.7276,12.8241 11.5,14.5C 7.5,12.5 7.5,10.5 11.5,8.5C 13.6114,9.60458 14.9447,11.2712 15.5,13.5 Z"/></g>
<g><path style="opacity:0.428" fill="#ffe34d" d="M 2.5,23.5 C 1.83333,23.5 1.16667,23.5 0.5,23.5C 0.5,22.8333 0.166667,22.5 -0.5,22.5C -0.5,21.8333 -0.5,21.1667 -0.5,20.5C 2.83333,19.1667 3.83333,20.1667 2.5,23.5 Z"/></g>
<g><path style="opacity:0.416" fill="#ffe44b" d="M 20.5,20.5 C 22.337,20.6395 22.6704,21.3061 21.5,22.5C 20.7025,22.0431 20.3691,21.3764 20.5,20.5 Z"/></g>
</svg>
