<?xml version="1.0" encoding="UTF-8"?>
<!DOCTYPE svg PUBLIC "-//W3C//DTD SVG 1.1//EN" "http://www.w3.org/Graphics/SVG/1.1/DTD/svg11.dtd">
<svg xmlns="http://www.w3.org/2000/svg" version="1.1" width="512px" height="512px" style="shape-rendering:geometricPrecision; text-rendering:geometricPrecision; image-rendering:optimizeQuality; fill-rule:evenodd; clip-rule:evenodd" xmlns:xlink="http://www.w3.org/1999/xlink">
<g><path style="opacity:1" fill="#dfdfdf" d="M 134.5,-0.5 C 215.167,-0.5 295.833,-0.5 376.5,-0.5C 452.5,13.5 497.5,58.5 511.5,134.5C 511.5,215.167 511.5,295.833 511.5,376.5C 497.5,452.5 452.5,497.5 376.5,511.5C 295.833,511.5 215.167,511.5 134.5,511.5C 58.5,497.5 13.5,452.5 -0.5,376.5C -0.5,295.833 -0.5,215.167 -0.5,134.5C 13.5,58.5 58.5,13.5 134.5,-0.5 Z M 142.5,51.5 C 217.834,51.3333 293.167,51.5 368.5,52C 411.706,57.8731 440.539,81.3731 455,122.5C 456.846,129.065 458.18,135.731 459,142.5C 459.667,217.833 459.667,293.167 459,368.5C 453.127,411.706 429.627,440.539 388.5,455C 381.935,456.846 375.269,458.18 368.5,459C 293.167,459.667 217.833,459.667 142.5,459C 99.2941,453.127 70.4608,429.627 56,388.5C 54.1537,381.935 52.8204,375.269 52,368.5C 51.0208,290.807 51.3541,213.14 53,135.5C 60.1163,100.719 79.6163,75.5527 111.5,60C 121.658,56.0468 131.991,53.2135 142.5,51.5 Z M 244.5,175.5 C 284.418,173.031 312.918,189.697 330,225.5C 342.033,260.868 334.533,291.368 307.5,317C 277.687,338.963 246.353,341.296 213.5,324C 181.884,302.173 170.05,272.339 178,234.5C 188.482,201.51 210.649,181.844 244.5,175.5 Z"/></g>
<g><path style="opacity:1" fill="#dfdfdf" d="M 382.5,92.5 C 386.833,93.8333 391.167,93.8333 395.5,92.5C 413.351,97.8593 421.518,109.859 420,128.5C 416.22,145.609 405.553,154.942 388,156.5C 368.492,154.325 357.658,143.492 355.5,124C 356.812,106.858 365.812,96.3578 382.5,92.5 Z"/></g>
<g><path style="opacity:1" fill="#ac59b2" d="M 395.5,92.5 C 391.167,93.8333 386.833,93.8333 382.5,92.5C 386.792,91.584 391.126,91.584 395.5,92.5 Z"/></g>
<g><path style="opacity:1" fill="#dfdfdf" d="M 247.5,122.5 C 308.226,122.257 351.726,149.257 378,203.5C 397.916,257.918 388.582,306.585 350,349.5C 307.046,388.49 258.213,397.99 203.5,378C 152.152,353.519 125.152,312.685 122.5,255.5C 125.152,198.315 152.152,157.481 203.5,133C 217.774,127.263 232.44,123.763 247.5,122.5 Z M 244.5,175.5 C 210.649,181.844 188.482,201.51 178,234.5C 170.05,272.339 181.884,302.173 213.5,324C 246.353,341.296 277.687,338.963 307.5,317C 334.533,291.368 342.033,260.868 330,225.5C 312.918,189.697 284.418,173.031 244.5,175.5 Z"/></g>
</svg>
