<?xml version="1.0" encoding="UTF-8"?>
<!DOCTYPE svg PUBLIC "-//W3C//DTD SVG 1.1//EN" "http://www.w3.org/Graphics/SVG/1.1/DTD/svg11.dtd">
<svg xmlns="http://www.w3.org/2000/svg" version="1.1" width="512px" height="512px" style="shape-rendering:geometricPrecision; text-rendering:geometricPrecision; image-rendering:optimizeQuality; fill-rule:evenodd; clip-rule:evenodd" xmlns:xlink="http://www.w3.org/1999/xlink">
<g><path style="opacity:1" fill="#dfdfdf" d="M 322.5,29.5 C 326.792,29.0349 330.792,29.8682 334.5,32C 382.667,80.1667 430.833,128.333 479,176.5C 482.333,181.833 482.333,187.167 479,192.5C 408.167,263.333 337.333,334.167 266.5,405C 261.686,407.893 256.686,408.226 251.5,406C 202.667,357.167 153.833,308.333 105,259.5C 102.774,254.314 103.107,249.314 106,244.5C 177.756,172.244 249.923,100.577 322.5,29.5 Z"/></g>
<g><path style="opacity:1" fill="#fdfefd" d="M 327.5,58.5 C 329.993,58.3291 331.826,59.3291 333,61.5C 332.842,102.178 332.008,142.845 330.5,183.5C 368.514,182.181 406.514,180.514 444.5,178.5C 446.891,178.559 449.225,178.893 451.5,179.5C 454.283,182.342 453.95,184.842 450.5,187C 410.85,189.285 371.183,191.285 331.5,193C 329.993,211.742 329.159,230.576 329,249.5C 328.727,251.329 327.893,252.829 326.5,254C 306.564,255.446 286.564,256.28 266.5,256.5C 264.878,296.507 263.045,336.507 261,376.5C 259.667,377.833 258.333,379.167 257,380.5C 255.488,379.743 254.154,378.743 253,377.5C 253.818,337.15 255.318,296.817 257.5,256.5C 216.844,258 176.178,258.833 135.5,259C 131.405,255.995 131.739,253.329 136.5,251C 197.162,249.158 257.828,247.491 318.5,246C 319,245.5 319.5,245 320,244.5C 321.35,183.49 323.017,122.49 325,61.5C 326.045,60.6266 326.878,59.6266 327.5,58.5 Z"/></g>
<g><path style="opacity:0.839" fill="#5b5d6d" d="M 92.5,313.5 C 100.674,312.499 103.507,315.832 101,323.5C 82.8333,341.667 64.6667,359.833 46.5,378C 37.8968,380.968 34.7302,378.135 37,369.5C 55.7017,350.965 74.2017,332.299 92.5,313.5 Z"/></g>
<g><path style="opacity:0.84" fill="#5b5c6d" d="M 140.5,361.5 C 148,360.166 150.833,363.166 149,370.5C 112.167,407.333 75.3333,444.167 38.5,481C 31.6667,482.167 28.8333,479.333 30,472.5C 67.0348,435.632 103.868,398.632 140.5,361.5 Z"/></g>
<g><path style="opacity:0.839" fill="#5b5d6d" d="M 190.5,408.5 C 196.849,409.027 199.016,412.361 197,418.5C 178.5,437 160,455.5 141.5,474C 136.334,476.084 133.001,474.417 131.5,469C 131.625,467.373 132.125,465.873 133,464.5C 151.782,445.215 170.948,426.549 190.5,408.5 Z"/></g>
</svg>
