<?xml version="1.0" encoding="UTF-8"?>
<!DOCTYPE svg PUBLIC "-//W3C//DTD SVG 1.1//EN" "http://www.w3.org/Graphics/SVG/1.1/DTD/svg11.dtd">
<svg xmlns="http://www.w3.org/2000/svg" version="1.1" width="512px" height="512px" style="shape-rendering:geometricPrecision; text-rendering:geometricPrecision; image-rendering:optimizeQuality; fill-rule:evenodd; clip-rule:evenodd" xmlns:xlink="http://www.w3.org/1999/xlink">
<g><path style="opacity:1" fill="#105652" d="M 322.5,29.5 C 326.792,29.0349 330.792,29.8682 334.5,32C 382.667,80.1667 430.833,128.333 479,176.5C 482.333,181.833 482.333,187.167 479,192.5C 408.167,263.333 337.333,334.167 266.5,405C 261.686,407.893 256.686,408.226 251.5,406C 202.667,357.167 153.833,308.333 105,259.5C 102.774,254.314 103.107,249.314 106,244.5C 177.756,172.244 249.923,100.577 322.5,29.5 Z"/></g>
<g><path style="opacity:1" fill="#fdfefd" d="M 331.5,172.5 C 330.518,175.962 330.185,179.629 330.5,183.5C 336.69,183.823 342.69,183.49 348.5,182.5C 380.519,181.651 412.519,180.317 444.5,178.5C 448.878,177.573 451.878,179.073 453.5,183C 452.899,184.605 451.899,185.938 450.5,187C 410.85,189.285 371.183,191.285 331.5,193C 329.993,211.742 329.159,230.576 329,249.5C 328.727,251.329 327.893,252.829 326.5,254C 306.564,255.446 286.564,256.28 266.5,256.5C 264.878,296.507 263.045,336.507 261,376.5C 259.377,379.407 257.21,380.407 254.5,379.5C 254.217,378.711 253.717,378.044 253,377.5C 252.501,371.509 252.334,365.509 252.5,359.5C 254.34,329.196 255.673,298.863 256.5,268.5C 257.483,264.702 257.817,260.702 257.5,256.5C 253.629,256.185 249.962,256.518 246.5,257.5C 209.497,258.183 172.497,258.683 135.5,259C 131.88,257.006 131.547,254.506 134.5,251.5C 144.63,250.88 154.63,250.214 164.5,249.5C 215.839,248.667 267.173,247.5 318.5,246C 319,245.5 319.5,245 320,244.5C 321.35,183.49 323.017,122.49 325,61.5C 327.716,57.5241 330.383,57.5241 333,61.5C 332.697,98.4973 332.197,135.497 331.5,172.5 Z"/></g>
<g><path style="opacity:1" fill="#3d776b" d="M 331.5,172.5 C 331.5,175.833 331.5,179.167 331.5,182.5C 337.167,182.5 342.833,182.5 348.5,182.5C 342.69,183.49 336.69,183.823 330.5,183.5C 330.185,179.629 330.518,175.962 331.5,172.5 Z"/></g>
<g><path style="opacity:1" fill="#3b766b" d="M 164.5,249.5 C 154.63,250.214 144.63,250.88 134.5,251.5C 134.611,250.883 134.944,250.383 135.5,250C 145.161,249.5 154.828,249.334 164.5,249.5 Z"/></g>
<g><path style="opacity:1" fill="#447c71" d="M 246.5,257.5 C 249.962,256.518 253.629,256.185 257.5,256.5C 257.817,260.702 257.483,264.702 256.5,268.5C 256.5,264.833 256.5,261.167 256.5,257.5C 253.167,257.5 249.833,257.5 246.5,257.5 Z"/></g>
<g><path style="opacity:0.839" fill="#5b5d6d" d="M 92.5,313.5 C 100.674,312.499 103.507,315.832 101,323.5C 82.8333,341.667 64.6667,359.833 46.5,378C 37.8968,380.968 34.7302,378.135 37,369.5C 55.7017,350.965 74.2017,332.299 92.5,313.5 Z"/></g>
<g><path style="opacity:0.84" fill="#5b5c6d" d="M 140.5,361.5 C 148,360.166 150.833,363.166 149,370.5C 112.167,407.333 75.3333,444.167 38.5,481C 31.6667,482.167 28.8333,479.333 30,472.5C 67.0348,435.632 103.868,398.632 140.5,361.5 Z"/></g>
<g><path style="opacity:1" fill="#437c71" d="M 252.5,359.5 C 252.334,365.509 252.501,371.509 253,377.5C 253.717,378.044 254.217,378.711 254.5,379.5C 253.504,379.586 252.671,379.252 252,378.5C 251.18,371.986 251.347,365.653 252.5,359.5 Z"/></g>
<g><path style="opacity:0.839" fill="#5b5d6d" d="M 190.5,408.5 C 196.849,409.027 199.016,412.361 197,418.5C 178.5,437 160,455.5 141.5,474C 136.334,476.084 133.001,474.417 131.5,469C 131.625,467.373 132.125,465.873 133,464.5C 151.782,445.215 170.948,426.549 190.5,408.5 Z"/></g>
</svg>
