<?xml version="1.0" encoding="UTF-8"?>
<!DOCTYPE svg PUBLIC "-//W3C//DTD SVG 1.1//EN" "http://www.w3.org/Graphics/SVG/1.1/DTD/svg11.dtd">
<svg xmlns="http://www.w3.org/2000/svg" version="1.1" width="512px" height="512px" style="shape-rendering:geometricPrecision; text-rendering:geometricPrecision; image-rendering:optimizeQuality; fill-rule:evenodd; clip-rule:evenodd" xmlns:xlink="http://www.w3.org/1999/xlink">
<g><path style="opacity:1" fill="#dfdfdf" d="M 423.5,248.5 C 423.5,249.833 423.5,251.167 423.5,252.5C 424.791,252.737 425.791,252.404 426.5,251.5C 455.919,239.918 480.752,246.252 501,270.5C 505.786,278.057 509.286,286.057 511.5,294.5C 511.5,301.833 511.5,309.167 511.5,316.5C 505.347,342.152 489.347,357.986 463.5,364C 430.188,365.13 396.855,365.63 363.5,365.5C 332.12,365.652 300.787,365.152 269.5,364C 267.951,362.786 266.785,361.286 266,359.5C 265.168,292.665 265.335,225.999 266.5,159.5C 267.833,158.833 268.833,157.833 269.5,156.5C 276.867,152.209 284.867,149.376 293.5,148C 334.076,141.376 368.576,152.876 397,182.5C 413.362,201.408 422.196,223.408 423.5,248.5 Z"/></g>
<g><path style="opacity:0.839" fill="#b9b8ae" d="M 269.5,156.5 C 268.833,157.833 267.833,158.833 266.5,159.5C 266.5,157.5 267.5,156.5 269.5,156.5 Z"/></g>
<g><path style="opacity:1" fill="#dddddd" d="M 247.5,158.5 C 252.28,157.641 255.78,159.308 258,163.5C 258.667,228.833 258.667,294.167 258,359.5C 254.726,364.738 250.226,365.904 244.5,363C 243.107,361.829 242.273,360.329 242,358.5C 241.333,293.833 241.333,229.167 242,164.5C 243.021,161.65 244.854,159.65 247.5,158.5 Z"/></g>
<g><path style="opacity:1" fill="#dddcdb" d="M 166.5,175.5 C 171.28,174.641 174.78,176.308 177,180.5C 177.667,240.5 177.667,300.5 177,360.5C 173.229,364.788 168.729,365.621 163.5,363C 162.54,361.581 161.707,360.081 161,358.5C 160.333,299.833 160.333,241.167 161,182.5C 161.938,179.402 163.772,177.069 166.5,175.5 Z"/></g>
<g><path style="opacity:1" fill="#dddddd" d="M 220.5,178.5 C 225.023,178.18 228.523,179.846 231,183.5C 231.667,242.5 231.667,301.5 231,360.5C 227.229,364.788 222.729,365.621 217.5,363C 216.54,361.581 215.707,360.081 215,358.5C 214.333,300.5 214.333,242.5 215,184.5C 216.021,181.65 217.854,179.65 220.5,178.5 Z"/></g>
<g><path style="opacity:1" fill="#dcdcdb" d="M 140.5,183.5 C 144.622,183.476 147.788,185.143 150,188.5C 150.667,245.833 150.667,303.167 150,360.5C 146.229,364.788 141.729,365.621 136.5,363C 135.283,361.352 134.45,359.519 134,357.5C 133.333,301.833 133.333,246.167 134,190.5C 135.018,186.985 137.185,184.652 140.5,183.5 Z"/></g>
<g><path style="opacity:1" fill="#dddcdc" d="M 201.5,189.5 C 201.427,191.027 202.094,192.027 203.5,192.5C 204.665,248.332 204.832,304.332 204,360.5C 199.947,365.008 195.28,365.674 190,362.5C 189.333,361.167 188.667,359.833 188,358.5C 187.333,303.833 187.333,249.167 188,194.5C 190.698,187.989 195.198,186.323 201.5,189.5 Z"/></g>
<g><path style="opacity:0.922" fill="#bfbfb4" d="M 201.5,189.5 C 202.906,189.973 203.573,190.973 203.5,192.5C 202.094,192.027 201.427,191.027 201.5,189.5 Z"/></g>
<g><path style="opacity:1" fill="#dad9d8" d="M 114.5,199.5 C 119.795,199.72 122.962,202.387 124,207.5C 124.667,257.167 124.667,306.833 124,356.5C 121.789,364.642 116.955,366.642 109.5,362.5C 108.194,361.088 107.36,359.421 107,357.5C 106.333,307.5 106.333,257.5 107,207.5C 107.68,202.989 110.18,200.323 114.5,199.5 Z"/></g>
<g><path style="opacity:1" fill="#dad9d8" d="M 85.5,231.5 C 91.9137,230.613 95.7471,233.28 97,239.5C 97.6667,278.833 97.6667,318.167 97,357.5C 94.1527,364.719 89.3194,366.385 82.5,362.5C 81.1936,361.088 80.3603,359.421 80,357.5C 79.3333,318.167 79.3333,278.833 80,239.5C 80.4898,235.854 82.3231,233.187 85.5,231.5 Z"/></g>
<g><path style="opacity:1" fill="#dad9d8" d="M 59.5,244.5 C 65.4625,243.965 68.9625,246.632 70,252.5C 70.6667,287.5 70.6667,322.5 70,357.5C 68.1831,363.955 64.0164,366.121 57.5,364C 55.1898,362.363 53.6898,360.196 53,357.5C 52.3333,322.5 52.3333,287.5 53,252.5C 53.5832,248.428 55.7499,245.761 59.5,244.5 Z"/></g>
<g><path style="opacity:1" fill="#dad9d8" d="M 33.5,247.5 C 38.9792,247.483 42.1458,250.149 43,255.5C 43.6667,288.5 43.6667,321.5 43,354.5C 41.1831,360.955 37.0164,363.121 30.5,361C 27.732,359.238 26.232,356.738 26,353.5C 25.3333,320.833 25.3333,288.167 26,255.5C 26.6804,250.989 29.1804,248.323 33.5,247.5 Z"/></g>
<g><path style="opacity:0.686" fill="#b0ac9e" d="M 423.5,248.5 C 424.1,249.9 425.1,250.9 426.5,251.5C 425.791,252.404 424.791,252.737 423.5,252.5C 423.5,251.167 423.5,249.833 423.5,248.5 Z"/></g>
<g><path style="opacity:1" fill="#dddcdc" d="M 3.5,340.5 C 3.02694,339.094 2.02694,338.427 0.5,338.5C 0.5,337.833 0.166667,337.5 -0.5,337.5C -0.5,316.167 -0.5,294.833 -0.5,273.5C 3.45312,269.251 8.11978,268.418 13.5,271C 14.4601,272.419 15.2935,273.919 16,275.5C 16.6667,295.5 16.6667,315.5 16,335.5C 13.28,341.454 9.11331,343.12 3.5,340.5 Z"/></g>
<g><path style="opacity:0.922" fill="#bdbab3" d="M 0.5,338.5 C 2.02694,338.427 3.02694,339.094 3.5,340.5C 1.97306,340.573 0.973056,339.906 0.5,338.5 Z"/></g>
</svg>
