<?xml version="1.0" encoding="UTF-8"?>
<!DOCTYPE svg PUBLIC "-//W3C//DTD SVG 1.1//EN" "http://www.w3.org/Graphics/SVG/1.1/DTD/svg11.dtd">
<svg xmlns="http://www.w3.org/2000/svg" version="1.1" width="512px" height="512px" style="shape-rendering:geometricPrecision; text-rendering:geometricPrecision; image-rendering:optimizeQuality; fill-rule:evenodd; clip-rule:evenodd" xmlns:xlink="http://www.w3.org/1999/xlink">
<g><path style="opacity:1" fill="#135651" d="M 395.5,181.5 C 395.427,183.027 396.094,184.027 397.5,184.5C 398.5,184.833 399.167,185.5 399.5,186.5C 399.427,188.027 400.094,189.027 401.5,189.5C 402.167,189.5 402.5,189.833 402.5,190.5C 402.427,192.027 403.094,193.027 404.5,193.5C 405.906,193.973 406.573,194.973 406.5,196.5C 406.427,198.027 407.094,199.027 408.5,199.5C 413.429,206.03 416.762,213.363 418.5,221.5C 418.259,223.898 418.926,225.898 420.5,227.5C 422.687,234.292 423.687,241.292 423.5,248.5C 423.5,249.833 423.5,251.167 423.5,252.5C 424.791,252.737 425.791,252.404 426.5,251.5C 447.232,242.449 467.232,243.949 486.5,256C 489.957,258.387 492.957,261.22 495.5,264.5C 495.427,266.027 496.094,267.027 497.5,267.5C 498.5,267.833 499.167,268.5 499.5,269.5C 499.427,271.027 500.094,272.027 501.5,272.5C 501.427,274.027 502.094,275.027 503.5,275.5C 507.008,281.512 509.675,287.846 511.5,294.5C 511.5,301.833 511.5,309.167 511.5,316.5C 505.347,342.152 489.347,357.986 463.5,364C 430.188,365.13 396.855,365.63 363.5,365.5C 332.12,365.652 300.787,365.152 269.5,364C 267.951,362.786 266.785,361.286 266,359.5C 265.168,292.665 265.335,225.999 266.5,159.5C 267.833,158.833 268.833,157.833 269.5,156.5C 278.794,151.502 288.794,148.336 299.5,147C 337.277,142.756 369.277,154.256 395.5,181.5 Z"/></g>
<g><path style="opacity:0.596" fill="#5c5e3f" d="M 269.5,156.5 C 268.833,157.833 267.833,158.833 266.5,159.5C 266.5,157.5 267.5,156.5 269.5,156.5 Z"/></g>
<g><path style="opacity:1" fill="#1a5650" d="M 255.5,160.5 C 255.427,162.027 256.094,163.027 257.5,163.5C 258.665,228.665 258.832,293.999 258,359.5C 255.565,364.224 251.731,365.724 246.5,364C 245.069,363.535 243.903,362.701 243,361.5C 241.344,295.891 241.011,230.224 242,164.5C 245.22,158.444 249.72,157.111 255.5,160.5 Z"/></g>
<g><path style="opacity:0.784" fill="#536143" d="M 255.5,160.5 C 256.906,160.973 257.573,161.973 257.5,163.5C 256.094,163.027 255.427,162.027 255.5,160.5 Z"/></g>
<g><path style="opacity:1" fill="#1b5650" d="M 166.5,175.5 C 171.28,174.641 174.78,176.308 177,180.5C 177.667,240.5 177.667,300.5 177,360.5C 173.229,364.788 168.729,365.621 163.5,363C 162.54,361.581 161.707,360.081 161,358.5C 160.333,299.833 160.333,241.167 161,182.5C 161.938,179.402 163.772,177.069 166.5,175.5 Z"/></g>
<g><path style="opacity:1" fill="#1c5650" d="M 228.5,180.5 C 228.427,182.027 229.094,183.027 230.5,183.5C 231.665,242.332 231.832,301.332 231,360.5C 226.947,365.008 222.28,365.674 217,362.5C 216.333,361.167 215.667,359.833 215,358.5C 214.333,300.5 214.333,242.5 215,184.5C 218.105,178.446 222.605,177.113 228.5,180.5 Z"/></g>
<g><path style="opacity:0.784" fill="#536143" d="M 228.5,180.5 C 229.906,180.973 230.573,181.973 230.5,183.5C 229.094,183.027 228.427,182.027 228.5,180.5 Z"/></g>
<g><path style="opacity:0.867" fill="#576142" d="M 395.5,181.5 C 396.906,181.973 397.573,182.973 397.5,184.5C 396.094,184.027 395.427,183.027 395.5,181.5 Z"/></g>
<g><path style="opacity:1" fill="#1b5650" d="M 147.5,185.5 C 147.427,187.027 148.094,188.027 149.5,188.5C 150.665,245.665 150.832,302.999 150,360.5C 146.229,364.788 141.729,365.621 136.5,363C 135.283,361.352 134.45,359.519 134,357.5C 133.171,301.429 133.338,245.429 134.5,189.5C 135.906,189.027 136.573,188.027 136.5,186.5C 139.824,183.093 143.49,182.76 147.5,185.5 Z"/></g>
<g><path style="opacity:0.839" fill="#4f6044" d="M 147.5,185.5 C 148.906,185.973 149.573,186.973 149.5,188.5C 148.094,188.027 147.427,187.027 147.5,185.5 Z"/></g>
<g><path style="opacity:0.784" fill="#526143" d="M 136.5,186.5 C 136.573,188.027 135.906,189.027 134.5,189.5C 134.427,187.973 135.094,186.973 136.5,186.5 Z"/></g>
<g><path style="opacity:1" fill="#1c5650" d="M 201.5,189.5 C 201.427,191.027 202.094,192.027 203.5,192.5C 204.665,248.332 204.832,304.332 204,360.5C 199.947,365.008 195.28,365.674 190,362.5C 189.333,361.167 188.667,359.833 188,358.5C 187.333,303.833 187.333,249.167 188,194.5C 190.698,187.989 195.198,186.323 201.5,189.5 Z"/></g>
<g><path style="opacity:0.839" fill="#506044" d="M 399.5,186.5 C 400.906,186.973 401.573,187.973 401.5,189.5C 400.094,189.027 399.427,188.027 399.5,186.5 Z"/></g>
<g><path style="opacity:0.718" fill="#576142" d="M 201.5,189.5 C 202.906,189.973 203.573,190.973 203.5,192.5C 202.094,192.027 201.427,191.027 201.5,189.5 Z"/></g>
<g><path style="opacity:0.867" fill="#4d5f44" d="M 402.5,190.5 C 403.906,190.973 404.573,191.973 404.5,193.5C 403.094,193.027 402.427,192.027 402.5,190.5 Z"/></g>
<g><path style="opacity:0.784" fill="#526143" d="M 406.5,196.5 C 407.906,196.973 408.573,197.973 408.5,199.5C 407.094,199.027 406.427,198.027 406.5,196.5 Z"/></g>
<g><path style="opacity:1" fill="#23564f" d="M 114.5,199.5 C 119.795,199.72 122.962,202.387 124,207.5C 124.667,257.167 124.667,306.833 124,356.5C 121.789,364.642 116.955,366.642 109.5,362.5C 108.194,361.088 107.36,359.421 107,357.5C 106.333,307.5 106.333,257.5 107,207.5C 107.68,202.989 110.18,200.323 114.5,199.5 Z"/></g>
<g><path style="opacity:0.996" fill="#4c5d45" d="M 418.5,221.5 C 419.738,223.214 420.405,225.214 420.5,227.5C 418.926,225.898 418.259,223.898 418.5,221.5 Z"/></g>
<g><path style="opacity:1" fill="#23564f" d="M 94.5,234.5 C 94.6596,236.153 95.3263,237.486 96.5,238.5C 97.6601,278.096 97.8268,317.762 97,357.5C 95.1544,363.995 90.9878,366.162 84.5,364C 81.8917,362.622 80.3917,360.455 80,357.5C 79.3333,318.167 79.3333,278.833 80,239.5C 81.2511,233.121 85.0844,230.621 91.5,232C 92.9423,232.377 93.9423,233.21 94.5,234.5 Z"/></g>
<g><path style="opacity:0.718" fill="#515f43" d="M 94.5,234.5 C 96.1042,235.287 96.7709,236.62 96.5,238.5C 95.3263,237.486 94.6596,236.153 94.5,234.5 Z"/></g>
<g><path style="opacity:1" fill="#23564f" d="M 59.5,244.5 C 65.4625,243.965 68.9625,246.632 70,252.5C 70.6667,287.5 70.6667,322.5 70,357.5C 68.1831,363.955 64.0164,366.121 57.5,364C 55.1898,362.363 53.6898,360.196 53,357.5C 52.3333,322.5 52.3333,287.5 53,252.5C 53.5832,248.428 55.7499,245.761 59.5,244.5 Z"/></g>
<g><path style="opacity:1" fill="#23564f" d="M 33.5,247.5 C 38.9792,247.483 42.1458,250.149 43,255.5C 43.6667,288.5 43.6667,321.5 43,354.5C 41.1831,360.955 37.0164,363.121 30.5,361C 27.732,359.238 26.232,356.738 26,353.5C 25.3333,320.833 25.3333,288.167 26,255.5C 26.6804,250.989 29.1804,248.323 33.5,247.5 Z"/></g>
<g><path style="opacity:0.439" fill="#685e3c" d="M 423.5,248.5 C 424.1,249.9 425.1,250.9 426.5,251.5C 425.791,252.404 424.791,252.737 423.5,252.5C 423.5,251.167 423.5,249.833 423.5,248.5 Z"/></g>
<g><path style="opacity:0.949" fill="#505d43" d="M 495.5,264.5 C 496.906,264.973 497.573,265.973 497.5,267.5C 496.094,267.027 495.427,266.027 495.5,264.5 Z"/></g>
<g><path style="opacity:1" fill="#1b5650" d="M 3.5,340.5 C 2.59774,338.659 1.26441,337.326 -0.5,336.5C -0.5,315.5 -0.5,294.5 -0.5,273.5C 3.45312,269.251 8.11978,268.418 13.5,271C 14.4601,272.419 15.2935,273.919 16,275.5C 16.6667,295.5 16.6667,315.5 16,335.5C 13.28,341.454 9.11331,343.12 3.5,340.5 Z"/></g>
<g><path style="opacity:0.867" fill="#4c5c44" d="M 499.5,269.5 C 500.906,269.973 501.573,270.973 501.5,272.5C 500.094,272.027 499.427,271.027 499.5,269.5 Z"/></g>
<g><path style="opacity:0.631" fill="#565940" d="M 501.5,272.5 C 502.906,272.973 503.573,273.973 503.5,275.5C 502.094,275.027 501.427,274.027 501.5,272.5 Z"/></g>
<g><path style="opacity:1" fill="#4d5643" d="M -0.5,337.5 C -0.5,337.167 -0.5,336.833 -0.5,336.5C 1.26441,337.326 2.59774,338.659 3.5,340.5C 1.56954,340.229 0.236209,339.229 -0.5,337.5 Z"/></g>
</svg>
