<?xml version="1.0" encoding="UTF-8"?>
<!DOCTYPE svg PUBLIC "-//W3C//DTD SVG 1.1//EN" "http://www.w3.org/Graphics/SVG/1.1/DTD/svg11.dtd">
<svg xmlns="http://www.w3.org/2000/svg" version="1.1" width="512px" height="512px" style="shape-rendering:geometricPrecision; text-rendering:geometricPrecision; image-rendering:optimizeQuality; fill-rule:evenodd; clip-rule:evenodd" xmlns:xlink="http://www.w3.org/1999/xlink">
<g><path style="opacity:1" fill="#dfe0df" d="M 233.5,-0.5 C 248.167,-0.5 262.833,-0.5 277.5,-0.5C 377.805,11.9821 449.305,63.9821 492,155.5C 502.297,180.687 508.797,206.687 511.5,233.5C 511.5,248.167 511.5,262.833 511.5,277.5C 499.018,377.805 447.018,449.305 355.5,492C 330.313,502.297 304.313,508.797 277.5,511.5C 262.833,511.5 248.167,511.5 233.5,511.5C 133.195,499.018 61.6947,447.018 19,355.5C 8.70332,330.313 2.20332,304.313 -0.5,277.5C -0.5,262.833 -0.5,248.167 -0.5,233.5C 11.9821,133.195 63.9821,61.6947 155.5,19C 180.687,8.70332 206.687,2.20332 233.5,-0.5 Z M 196.5,144.5 C 252.642,141.647 307.642,148.147 361.5,164C 386.74,171.955 410.74,182.621 433.5,196C 448.157,209.713 448.157,223.38 433.5,237C 426.592,241.249 419.258,242.249 411.5,240C 362.757,212.729 310.424,197.729 254.5,195C 204.205,192.239 154.538,196.572 105.5,208C 87.9789,209.07 77.9789,200.903 75.5,183.5C 78.3552,166.822 88.3552,157.989 105.5,157C 135.681,150.616 166.014,146.449 196.5,144.5 Z M 195.5,234.5 C 254.358,230.588 311.025,239.755 365.5,262C 374.657,266.412 383.657,271.078 392.5,276C 404.5,287.333 404.5,298.667 392.5,310C 385.912,313.663 379.245,313.996 372.5,311C 331.156,288.246 286.823,276.246 239.5,275C 200.997,273.44 162.997,277.106 125.5,286C 113.482,287.238 105.649,282.071 102,270.5C 100.57,259.263 105.07,251.429 115.5,247C 141.957,240.533 168.624,236.367 195.5,234.5 Z M 200.5,312.5 C 247.96,310.187 293.626,318.021 337.5,336C 345.991,340.078 354.324,344.412 362.5,349C 370.729,358.289 370.395,367.289 361.5,376C 358.533,377.7 355.367,378.867 352,379.5C 335.028,371.173 317.528,364.006 299.5,358C 245.376,343.361 191.043,342.695 136.5,356C 126.126,357.566 119.292,353.399 116,343.5C 114.436,332.722 118.936,325.889 129.5,323C 153.043,317.661 176.71,314.161 200.5,312.5 Z"/></g>
</svg>
