<?xml version="1.0" encoding="UTF-8"?>
<!DOCTYPE svg PUBLIC "-//W3C//DTD SVG 1.1//EN" "http://www.w3.org/Graphics/SVG/1.1/DTD/svg11.dtd">
<svg xmlns="http://www.w3.org/2000/svg" version="1.1" width="512px" height="512px" style="shape-rendering:geometricPrecision; text-rendering:geometricPrecision; image-rendering:optimizeQuality; fill-rule:evenodd; clip-rule:evenodd" xmlns:xlink="http://www.w3.org/1999/xlink">
<g><path style="opacity:1" fill="#105651" d="M 511.5,93.5 C 511.5,95.8333 511.5,98.1667 511.5,100.5C 506.172,108.458 500.339,116.124 494,123.5C 483.279,134.221 472.613,144.887 462,155.5C 460.569,237.961 433.235,310.295 380,372.5C 319.835,436.733 245.502,468.733 157,468.5C 100.117,468.92 47.617,454.253 -0.5,424.5C -0.5,421.5 -0.5,418.5 -0.5,415.5C 1.43331,413.404 3.76664,411.904 6.5,411C 52.4839,412.922 94.8172,401.589 133.5,377C 100.313,370.446 74.8133,352.946 57,324.5C 52.4257,316.608 48.9257,308.275 46.5,299.5C 46.7453,296.832 48.0786,294.998 50.5,294C 57.8409,294.26 65.1742,294.594 72.5,295C 37.4524,277.108 16.9524,248.608 11,209.5C 10.3333,203.167 10.3333,196.833 11,190.5C 12.5522,189.034 14.3855,188.034 16.5,187.5C 24.2063,191.456 32.2063,194.289 40.5,196C 10.1548,159.933 3.32146,119.766 20,75.5C 22.0391,71.2547 24.2058,67.088 26.5,63C 29.0301,61.5783 31.6967,61.245 34.5,62C 85.9691,124.328 152.136,160.162 233,169.5C 235.034,169.646 236.701,168.98 238,167.5C 234.416,124.522 249.249,89.6889 282.5,63C 310.516,43.9305 341.183,37.9305 374.5,45C 392.595,49.4558 408.595,57.7892 422.5,70C 425.327,71.6229 428.327,72.7895 431.5,73.5C 452.628,68.2677 472.628,60.2677 491.5,49.5C 493.697,49.8481 495.53,50.8481 497,52.5C 493.869,71.9212 485.036,88.4212 470.5,102C 481.2,100.101 491.533,96.7678 501.5,92C 505.149,91.037 508.482,91.537 511.5,93.5 Z"/></g>
</svg>
