<?xml version="1.0" encoding="UTF-8"?>
<!DOCTYPE svg PUBLIC "-//W3C//DTD SVG 1.1//EN" "http://www.w3.org/Graphics/SVG/1.1/DTD/svg11.dtd">
<svg xmlns="http://www.w3.org/2000/svg" version="1.1" width="512px" height="512px" style="shape-rendering:geometricPrecision; text-rendering:geometricPrecision; image-rendering:optimizeQuality; fill-rule:evenodd; clip-rule:evenodd" xmlns:xlink="http://www.w3.org/1999/xlink">
<g><path style="opacity:1" fill="#105651" d="M 511.5,166.5 C 511.5,225.833 511.5,285.167 511.5,344.5C 503.777,387.406 479.444,416.572 438.5,432C 428.716,434.964 418.716,436.631 408.5,437C 306.5,437.667 204.5,437.667 102.5,437C 57.5909,434.071 25.7575,412.238 7,371.5C 3.69181,362.587 1.19181,353.587 -0.5,344.5C -0.5,285.167 -0.5,225.833 -0.5,166.5C 7.223,123.594 31.5563,94.4276 72.5,79C 82.2841,76.036 92.2841,74.3693 102.5,74C 204.5,73.3333 306.5,73.3333 408.5,74C 453.409,76.9291 485.242,98.7624 504,139.5C 507.308,148.413 509.808,157.413 511.5,166.5 Z M 189.5,181.5 C 237.392,204.78 285.059,228.613 332.5,253C 335.207,254.864 336.041,257.364 335,260.5C 288.063,283.718 240.896,306.551 193.5,329C 189.834,330.271 187.334,329.104 186,325.5C 185.333,279.167 185.333,232.833 186,186.5C 186.257,184.093 187.424,182.427 189.5,181.5 Z"/></g>
</svg>
